<?xml version="1.0" encoding="UTF-8"?>
<svg id="Layer_1" xmlns="http://www.w3.org/2000/svg" version="1.1" viewBox="0 0 479 158">
  <!-- Generator: Adobe Illustrator 29.5.1, SVG Export Plug-In . SVG Version: 2.1.0 Build 141)  -->
  <defs>
    <style>
      .st0 {
        fill: #111f44;
      }
    </style>
  </defs>
  <g>
    <path class="st0" d="M196.98,32.85h-20.49v.49c1.79,1.38,2.47,3.15,2.47,6.4v53.18c0,3.25-.68,5.02-2.47,6.4v.49h19.31c21.08,0,34.96-13.59,34.96-34.17s-13.11-32.79-33.78-32.79ZM195.69,95.87h-4.92v-59.1h2.26c15.07,0,25.3,13.49,25.3,33,0,16.94-7.78,26.1-22.64,26.1Z"/>
    <path class="st0" d="M284.6,93.6l-21.06-60.75h-12.5l1.46,4.24-21.76,62.72h15.56v-.49c-5.21-3.15-5.7-12.89-1.36-28.06l1.36-3.95,8.38-24.12,8.27,24.12,1.38,3.95,9.95,28.55h14.47v-.49c-1.58-.8-2.86-2.57-4.14-5.72Z"/>
    <path class="st0" d="M421.39,93.6l-21.06-60.75h-12.5l1.46,4.24-21.76,62.72h15.56v-.49c-5.21-3.15-5.7-12.89-1.36-28.06l1.36-3.95,8.38-24.12,8.27,24.12,1.38,3.95,9.95,28.55h14.47v-.49c-1.58-.8-2.86-2.57-4.14-5.72Z"/>
    <path class="st0" d="M362.6,33.34v-.49h-11.34l-22.54,47.57-22.46-47.57h-12.6v.49c2.47,1.67,3.44,5.23,3.44,11.63v42.74c0,6.4-.97,9.94-3.44,11.61v.49h10.83v-.49c-2.47-1.67-3.44-5.21-3.44-11.61v-38.21l21.18,44.8h4.42l21.68-45.8v44.41c0,3.25-.7,5.02-2.47,6.4v.49h16.74v-.49c-1.77-1.38-2.47-3.15-2.47-6.4v-53.18c0-3.25.7-5.02,2.47-6.4Z"/>
    <path class="st0" d="M392.65,83.64h0c0-4.04-3.27-7.31-7.31-7.31h0c4.04,0,7.31-3.27,7.31-7.31h0c0,4.04,3.27,7.31,7.31,7.31h0c-4.04,0-7.31,3.27-7.31,7.31Z"/>
    <path class="st0" d="M254.72,83.64h0c0-4.04-3.27-7.31-7.31-7.31h0c4.04,0,7.31-3.27,7.31-7.31h0c0,4.04,3.27,7.31,7.31,7.31h0c-4.04,0-7.31,3.27-7.31,7.31Z"/>
  </g>
  <g>
    <path class="st0" d="M196.33,128.7c4.81,0,9.02-5.47,9.02-5.47-1.54,4.15-5.78,7.1-11.34,7.1-7.48,0-12-5.25-12-11.66s4.59-11.53,12.07-11.53c5,0,9.65,2.17,11.19,5.66.6,1.38-.38,2.95-1.89,2.95h-2.86c1.16-4.27-4.02-8.08-8.45-7.07-5.03,1.13-5.72,7.35-4.84,11.47.88,4.12,3.64,8.58,9.08,8.58l.03-.03Z"/>
    <path class="st0" d="M231.8,118.74c0,6.41-4.21,11.59-12.16,11.59s-12.16-5.18-12.16-11.59,4.21-11.59,12.16-11.59,12.16,5.18,12.16,11.59ZM223.06,128.38c3.99-1.45,5.44-6.25,3.33-12.07-2.23-6.13-6.32-8.55-10.31-7.1-3.99,1.45-5.44,6.22-3.3,12.03,2.14,5.81,6.35,8.55,10.34,7.1l-.06.03Z"/>
    <path class="st0" d="M257.28,107.74s-1.32,1.45-1.32,4.87v17.12h-2.61c-.75,0-1.48-.35-1.95-.94l-14.67-18.95v15.02c0,2.8.85,4.27,1.19,4.74l.13.16h-4.02l.13-.16c.35-.47,1.19-1.95,1.19-4.74v-12.25c0-3.42-1.32-4.87-1.32-4.87h6.06c.75,0,1.48.35,1.95.94l12.54,16.21v-12.29c0-3.42-1.32-4.87-1.32-4.87h4.02Z"/>
    <path class="st0" d="M283.41,107.67h4.05c-1.79,1.95-3.3,4.18-4.46,6.57l-7.41,15.43h-5.44l-6.63-13.79c-1.41-2.92-3.17-5.66-5.25-8.17h8.01c.22,2.23.82,4.4,1.79,6.41l6.76,14.04,7.64-15.77c.69-1.45,1.01-3.05.94-4.65v-.06Z"/>
    <path class="st0" d="M302.99,128.35c2.14,0,4.18-1.51,5.69-3.02v4.4h-20.08l.13-.16c.35-.47,1.19-1.95,1.19-4.74v-12.25c0-.22,0-.44-.03-.63-.16-2.98-1.32-4.24-1.32-4.24h18.98v4.4c-1.51-1.51-3.55-3.02-5.69-3.02h-7.07v8.73h6.22c1.73,0,3.46-.72,5-1.51v4.4h-.03c-1.54-.75-3.24-1.48-4.97-1.48h-6.25v9.11h8.23Z"/>
    <path class="st0" d="M333.97,107.74s-1.32,1.45-1.32,4.87v17.12h-2.61c-.75,0-1.48-.35-1.95-.94l-14.67-18.95v15.02c0,2.8.85,4.27,1.19,4.74l.13.16h-4.02l.13-.16c.35-.47,1.19-1.95,1.19-4.74v-12.25c0-3.42-1.32-4.87-1.32-4.87h6.06c.75,0,1.48.35,1.95.94l12.54,16.21v-12.29c0-3.42-1.32-4.87-1.32-4.87h4.02Z"/>
    <path class="st0" d="M357.81,107.8v4.4c-1.51-1.51-3.55-3.02-5.69-3.02h-3.08v15.8c0,.28,0,.57.03.85v.09c.19,2.14.88,3.3,1.16,3.68l.13.16h-7.54l.13-.16c.35-.47,1.19-1.95,1.19-4.74l.03-15.74h-3.11c-2.14,0-4.18,1.51-5.69,3.02v-4.4l22.43.06Z"/>
    <path class="st0" d="M366.83,129.61l.13.16h-7.54l.13-.16c.35-.47,1.19-1.95,1.19-4.74v-12.25c0-3.42-1.32-4.87-1.32-4.87h7.54s-1.32,1.45-1.32,4.87v12.25c0,2.8.85,4.27,1.19,4.74Z"/>
    <path class="st0" d="M393.53,118.74c0,6.41-4.21,11.59-12.16,11.59s-12.16-5.18-12.16-11.59,4.21-11.59,12.16-11.59,12.16,5.18,12.16,11.59ZM384.8,128.38c3.99-1.45,5.44-6.25,3.33-12.07-2.23-6.13-6.32-8.55-10.31-7.1-3.99,1.45-5.44,6.22-3.3,12.03,2.14,5.81,6.35,8.55,10.34,7.1l-.06.03Z"/>
    <path class="st0" d="M419.01,107.74s-1.32,1.45-1.32,4.87v17.12h-2.61c-.75,0-1.48-.35-1.95-.94l-14.67-18.95v15.02c0,2.8.85,4.27,1.19,4.74l.13.16h-4.02l.13-.16c.35-.47,1.19-1.95,1.19-4.74v-12.25c0-3.42-1.32-4.87-1.32-4.87h6.06c.75,0,1.48.35,1.95.94l12.54,16.21v-12.29c0-3.42-1.32-4.87-1.32-4.87h4.02Z"/>
  </g>
  <path class="st0" d="M57.26,27c16.35.87,33.06-.89,49.4-.09,44.89,2.2,66.54,56.72,36.62,89.85-8.66,9.59-22.82,16.7-35.82,17.39-15.08.8-30.86-.52-46.01-.29-2.74.04-4.04.8-6.86-.6-5.97-2.97-4.33-8.98-4.48-14.5-.74-27.65-.02-55.45-.29-83.15.34-4.27,3.07-7.98,7.44-8.6ZM70.71,80.15c.17-.26,4.97-1.66,5.86-2.03,6.67-2.75,11.94-5.93,16.11-11.97,3.14-4.55,4.79-9.78,6.76-14.89,3.2,5.58,4.26,12.34,8.68,17.25,5.36,5.95,14.19,7.34,21.11,3.18,2.04-1.23,4.26-2.99,4.03-5.59-.14-1.64-2.61-5.59-3.64-7.06-18.1-26.03-60.07-17.12-66.29,13.87-8.22,40.93,47.09,61.81,68,26.56,1.61-2.71,3.03-5.09.72-7.85-5.31-6.36-16.46-5.56-22.46-.51-5.9,4.96-6.12,11.94-9.45,17.82-.19.34-.41.63-.72.88-.31,0-1.85-5.14-2.14-5.87-4-10.08-8.87-15.75-18.85-20.18-1.16-.51-7.51-2.49-7.73-2.84-.05-.08-.05-.68,0-.76ZM99.83,73.18c-.41-.41-.46.14-.6.34-.56.86-.83,2.09-1.32,2.95-1.24,2.16-3.5,3.26-5.83,3.93-.27.35,3.69,1.9,4.1,2.18,1.84,1.26,2.47,3.55,3.12,5.57,1.37-1.53,1.53-3.61,3.06-5.09,1.34-1.3,3.11-1.67,4.69-2.53-3.15-1.47-5.04-2.11-6.65-5.38-.26-.52-.5-1.9-.57-1.97Z"/>
</svg>